<svg id="Layer_1" fill='#fff' data-name="Layer 1" xmlns="http://www.w3.org/2000/svg" viewBox="0 0 32 32"><title>call</title><path d="M569,363.57a5,5,0,0,1-1.07-.19,15.37,15.37,0,0,1-2.1-.63,3.2,3.2,0,0,0-4,1.61l-.35.74a18.75,18.75,0,0,1-7.48-7.5l.74-.34a3.24,3.24,0,0,0,1.56-1.68,3.2,3.2,0,0,0,0-2.3,17.21,17.21,0,0,1-.63-2.12c-.08-.35-.14-.72-.19-1.08a4.8,4.8,0,0,0-4.8-4H546a4.85,4.85,0,0,0-2,.41,5,5,0,0,0-1.63,1.19,4.84,4.84,0,0,0-1,1.8,4.79,4.79,0,0,0-.16,2.06,30.48,30.48,0,0,0,26.27,26.35c.21,0,.41,0,.62,0a4.83,4.83,0,0,0,3.2-1.22,4.83,4.83,0,0,0,1.61-3.6v-4.82a4.84,4.84,0,0,0-3.88-4.69Zm.79,9.64a1.85,1.85,0,0,1-.14.65,1.74,1.74,0,0,1-.39.54,1.58,1.58,0,0,1-1.32.4,27.36,27.36,0,0,1-23.61-23.67,1.58,1.58,0,0,1,.4-1.32,1.59,1.59,0,0,1,.54-.39,1.66,1.66,0,0,1,.66-.14h4.8a1.59,1.59,0,0,1,1.6,1.25,6.66,6.66,0,0,0,.24,1.32,19,19,0,0,0,.74,2.47l-2.24,1.06a1.68,1.68,0,0,0-.83,2.12,23.22,23.22,0,0,0,11.2,11.24,1.61,1.61,0,0,0,1.22,0,1.56,1.56,0,0,0,.9-.83l1-2.25a19.85,19.85,0,0,0,2.53.74c.41.1.86.18,1.29.24a1.61,1.61,0,0,1,1.25,1.61Zm-9.45-27.3h-1.12a1.59,1.59,0,0,0-1.09.57,1.61,1.61,0,0,0-.38,1.17,1.63,1.63,0,0,0,.57,1.1,1.6,1.6,0,0,0,1.17.37h.85a9.63,9.63,0,0,1,9.61,9.64v.85a1.57,1.57,0,0,0,.37,1.17,1.61,1.61,0,0,0,1.08.56h.13a1.59,1.59,0,0,0,1.08-.42,1.56,1.56,0,0,0,.52-1v-1.12a12.82,12.82,0,0,0-12.79-12.85Zm3.2,12.85a1.6,1.6,0,0,0,1.6,1.6,1.59,1.59,0,0,0,1.13-.47,1.61,1.61,0,0,0,.47-1.13,6.4,6.4,0,0,0-6.4-6.43,1.61,1.61,0,0,0-1.13,2.74,1.56,1.56,0,0,0,1.13.47,3.19,3.19,0,0,1,2.26.94A3.24,3.24,0,0,1,563.56,358.76Z" transform="translate(-541.15 -345.91)"/></svg>