<svg id="Layer_1" data-name="Layer 1" xmlns="http://www.w3.org/2000/svg" viewBox="0 0 100 47"><defs><style>.cls-1{fill:#fff;}.cls-2{fill:#231f20;}</style></defs><title>light</title><path class="cls-1" d="M438.22,192.84h53a23.5,23.5,0,0,1,23.5,23.5h0a23.5,23.5,0,0,1-23.5,23.5h-53a23.5,23.5,0,0,1-23.5-23.5h0A23.5,23.5,0,0,1,438.22,192.84Z" transform="translate(-414.72 -192.84)"/><path class="cls-2" d="M475.16,200.26a14.09,14.09,0,0,0-3.71-2.95,13.08,13.08,0,0,0-5.32-1.43c-.36,0-.72,0-1.08,0A13.58,13.58,0,0,0,451.76,210c.25,3.53,2.27,6.3,3.89,8.53l.07.1.91,1.2a20,20,0,0,1,2.79,4.34l.08.19a5.44,5.44,0,0,1,.64,2,1,1,0,0,1-.33.65,1.17,1.17,0,0,0-.31,1.23c.23.86,1.31.86,2.56.86h6.55c1,0,2.1,0,2.33-.87a1.32,1.32,0,0,0-.37-1.3,1.08,1.08,0,0,1-.28-.48c-.12-.87.82-2.83,1.73-4.29.59-.92,1.21-1.72,1.81-2.49.28-.36.54-.69.79-1l.4-.54c1.67-2.24,3.4-4.55,3.66-8A12.81,12.81,0,0,0,475.16,200.26Zm-2.49,16.6-.36.47-.62.82c-1.88,2.45-3.65,4.77-4.07,8.3h-4.81c-.52-3.73-2.32-6.11-4.23-8.62l-.45-.59-.26-.34c-1.49-2-3.17-4.19-3.41-6.79a10.29,10.29,0,0,1,3.17-8.53,10.57,10.57,0,0,1,7.62-3.13c.33,0,.67,0,1,0A10.67,10.67,0,0,1,476,208.3c.28,3.83-1.55,6.24-3.31,8.56Z" transform="translate(-414.72 -192.84)"/><path class="cls-2" d="M469.15,233.32a10,10,0,0,0-2-.13l-1.53,0-1.5,0h-1.38c-.86,0-2.64,0-2.72,1.12a.88.88,0,0,0,.29.77,3.81,3.81,0,0,0,2.37.51l1.28,0,1.18,0h3c1.1,0,2.15,0,2.23-1S469.71,233.44,469.15,233.32Z" transform="translate(-414.72 -192.84)"/></svg>