<svg id="Layer_1" data-name="Layer 1" xmlns="http://www.w3.org/2000/svg" viewBox="0 0 100 47"><defs><style>.cls-1{fill:#fff;}</style></defs><title>puzzle</title><path class="cls-1" d="M455.94,330.82h53a23.5,23.5,0,0,1,23.5,23.5h0a23.5,23.5,0,0,1-23.5,23.5h-53a23.5,23.5,0,0,1-23.5-23.5h0A23.5,23.5,0,0,1,455.94,330.82Z" transform="translate(-432.44 -330.82)"/><path d="M488,341.15a.43.43,0,0,0,0-.16,4.21,4.21,0,0,0-1.3-3,4.44,4.44,0,0,0-6.09,0,4.26,4.26,0,0,0-1.31,3c.34,2.1,1.22,2.77,1.9,4.32l-9.51-.18-.19,9.23c-1.8-.69-3.1-1.93-4.63-2h-.16a4.35,4.35,0,0,0-3,1.27,4.18,4.18,0,0,0,0,5.95,4.37,4.37,0,0,0,3,1.28c2.27-.34,2.9-1.29,4.71-2l-.2,9.43,9.56.18c-.68-1.62-1.59-2.26-1.93-4.4a4.17,4.17,0,0,1,1.3-2.95,4.41,4.41,0,0,1,6.09,0,4.26,4.26,0,0,1,1.31,2.95v.16c0,1.44-1.2,2.67-1.92,4.34l9.36.18.46-23.25-9.32-.18C486.85,343.77,488,342.56,488,341.15Z" transform="translate(-432.44 -330.82)"/></svg>